# xmcd
#
# Track frame offsets:
# 150
# 10713
# 21837
# 30769
# 41674
# 51783
# 61781
# 71147
# 82549
# 102427
# 171015
# 206813
# 216928
# 229102
# 233568
# 256172
# 275521
#
# Disc length: 3908 seconds
#
# Revision: 0
# Processed by: cddbd v1.4PL0 Copyright (c) Steve Scherf et al.
# Submitted via: Audion 3.0.2 (http://www.panic.com/audion/)
#
DISCID=d60f4211
DTITLE=Frederick Moore - 94.7 etc
DYEAR=1900
DGENRE=
TTITLE0=Z1
TTITLE1=Z2
TTITLE2=Z3
TTITLE3=Z4
TTITLE4=Z5
TTITLE5=Z6
TTITLE6=Z7
TTITLE7=Z8
TTITLE8=Anarchy-acoustic
TTITLE9=Barney-acoustic
TTITLE10=Burned&ScatteredGods
TTITLE11=Passacaglia
TTITLE12=MessageInABottle
TTITLE13=StringQuintet
TTITLE14=Beautifulwoman
TTITLE15=LoveLiesHere
TTITLE16=HotLava
EXTD=
EXTT0=
EXTT1=
EXTT2=
EXTT3=
EXTT4=
EXTT5=
EXTT6=
EXTT7=
EXTT8=
EXTT9=
EXTT10=
EXTT11=
EXTT12=
EXTT13=
EXTT14=
EXTT15=
EXTT16=
PLAYORDER=
